# This file uses centimeters as units for non-parametric coordinates.

v -0.645123 -1.043831 1.023485
v -1.172746 -1.043831 0.297274
v -0.409163 -1.515752 0.297274
v 1.425623 0.538078 0.481000
v 0.898000 0.538078 1.207211
v 1.279792 -0.225505 0.929823
v 1.172746 1.043831 0.297274
v 0.409163 1.515752 0.297274
v 0.645123 1.043831 1.023485
v -1.425623 -0.538078 -0.481000
v -1.279792 0.225505 -0.929823
v -0.898000 -0.538078 -1.207211
v -1.279792 0.225505 0.929823
v -1.425623 -0.538078 0.481000
v -0.898000 -0.538078 1.207211
v 0.870628 -0.538078 1.227097
v 0.488837 0.225505 1.504485
v 0.016917 -0.538078 1.504485
v -0.774038 1.043831 -0.929823
v -0.156286 1.515752 -0.481000
v 0.079674 1.043831 -1.207211
v -1.436078 0.538078 0.448823
v -1.436078 0.538078 -0.448823
v -1.581909 -0.225505 0.000000
v 1.123505 -1.043831 -0.448823
v 1.123505 -1.043831 0.448823
v 0.505753 -1.515752 0.000000
v 0.079674 1.043831 1.207211
v -0.156286 1.515752 0.481000
v -0.774038 1.043831 0.929823
v 1.436078 -0.538078 -0.448823
v 1.581909 0.225505 0.000000
v 1.436078 -0.538078 0.448823
v -1.172746 -1.043831 -0.297274
v -0.645123 -1.043831 -1.023485
v -0.409163 -1.515752 -0.297274
v -0.016917 0.538078 1.504485
v -0.870628 0.538078 1.227097
v -0.488837 -0.225505 1.504485
v -0.870628 0.538078 -1.227097
v -0.016917 0.538078 -1.504485
v -0.488837 -0.225505 -1.504485
v -1.123505 1.043831 0.448823
v -0.505753 1.515752 0.000000
v -1.123505 1.043831 -0.448823
v 0.774038 -1.043831 0.929823
v -0.079674 -1.043831 1.207211
v 0.156286 -1.515752 0.481000
v 0.898000 0.538078 -1.207211
v 1.425623 0.538078 -0.481000
v 1.279792 -0.225505 -0.929823
v 0.409163 1.515752 -0.297274
v 1.172746 1.043831 -0.297274
v 0.645123 1.043831 -1.023485
v 0.016917 -0.538078 -1.504485
v 0.488837 0.225505 -1.504485
v 0.870628 -0.538078 -1.227097
v -0.079674 -1.043831 -1.207211
v 0.774038 -1.043831 -0.929823
v 0.156286 -1.515752 -0.481000
vn -0.427217 -0.691251 0.582801
vn -0.619644 -0.306397 0.722608
vn -0.878721 -0.306397 0.366019
vn -0.686294 -0.691251 0.226212
vn -0.686294 -0.691251 0.226212
vn -0.311354 -0.922977 0.226212
vn -0.427217 -0.691251 0.582801
vn -0.686294 -0.691251 0.226212
vn -0.686294 -0.691251 -0.226212
vn -0.311354 -0.922977 -0.226212
vn -0.311354 -0.922977 0.226212
vn -0.311354 -0.922977 0.226212
vn 0.118927 -0.922977 0.366019
vn 0.003064 -0.691251 0.722608
vn -0.427217 -0.691251 0.582801
vn 0.878721 0.306397 0.366019
vn 0.686294 0.691251 0.226212
vn 0.427217 0.691251 0.582801
vn 0.619644 0.306397 0.722608
vn 0.619644 0.306397 0.722608
vn 0.807114 -0.068543 0.586403
vn 0.878721 0.306397 0.366019
vn 0.619644 0.306397 0.722608
vn 0.308290 0.068543 0.948820
vn 0.495760 -0.306397 0.812615
vn 0.807114 -0.068543 0.586403
vn 0.807114 -0.068543 0.586403
vn 0.926041 -0.306397 0.220384
vn 0.997648 0.068543 -0.000000
vn 0.878721 0.306397 0.366019
vn 0.686294 0.691251 0.226212
vn 0.686294 0.691251 -0.226212
vn 0.311354 0.922977 -0.226212
vn 0.311354 0.922977 0.226212
vn 0.311354 0.922977 0.226212
vn 0.427217 0.691251 0.582801
vn 0.686294 0.691251 0.226212
vn 0.311354 0.922977 0.226212
vn -0.118927 0.922977 0.366019
vn -0.003064 0.691251 0.722608
vn 0.427217 0.691251 0.582801
vn 0.427217 0.691251 0.582801
vn -0.003064 0.691251 0.722608
vn -0.076565 0.306397 0.948820
vn 0.308290 0.068543 0.948820
vn 0.619644 0.306397 0.722608
vn -0.878721 -0.306397 -0.366019
vn -0.997648 -0.068543 0.000000
vn -0.926041 0.306397 -0.220384
vn -0.807114 0.068543 -0.586403
vn -0.807114 0.068543 -0.586403
vn -0.619644 -0.306397 -0.722608
vn -0.878721 -0.306397 -0.366019
vn -0.807114 0.068543 -0.586403
vn -0.495760 0.306397 -0.812615
vn -0.308290 -0.068543 -0.948820
vn -0.619644 -0.306397 -0.722608
vn -0.619644 -0.306397 -0.722608
vn -0.427217 -0.691251 -0.582801
vn -0.686294 -0.691251 -0.226212
vn -0.878721 -0.306397 -0.366019
vn -0.807114 0.068543 0.586403
vn -0.926041 0.306397 0.220384
vn -0.997648 -0.068543 0.000000
vn -0.878721 -0.306397 0.366019
vn -0.878721 -0.306397 0.366019
vn -0.619644 -0.306397 0.722608
vn -0.807114 0.068543 0.586403
vn -0.878721 -0.306397 0.366019
vn -0.997648 -0.068543 0.000000
vn -0.878721 -0.306397 -0.366019
vn -0.686294 -0.691251 -0.226212
vn -0.686294 -0.691251 0.226212
vn -0.619644 -0.306397 0.722608
vn -0.308290 -0.068543 0.948820
vn -0.495760 0.306397 0.812615
vn -0.807114 0.068543 0.586403
vn 0.495760 -0.306397 0.812615
vn 0.422259 -0.691251 0.586403
vn 0.688188 -0.691252 0.220384
vn 0.926041 -0.306397 0.220384
vn 0.807114 -0.068543 0.586403
vn 0.308290 0.068543 0.948820
vn 0.076565 -0.306397 0.948820
vn 0.495760 -0.306397 0.812615
vn 0.308290 0.068543 0.948820
vn -0.076565 0.306397 0.948820
vn -0.308290 -0.068543 0.948820
vn 0.076565 -0.306397 0.948820
vn 0.076565 -0.306397 0.948820
vn 0.003064 -0.691251 0.722608
vn 0.422259 -0.691251 0.586403
vn 0.495760 -0.306397 0.812615
vn -0.422259 0.691251 -0.586403
vn -0.688188 0.691252 -0.220384
vn -0.384855 0.922977 -0.000000
vn -0.118927 0.922977 -0.366019
vn -0.118927 0.922977 -0.366019
vn -0.003064 0.691251 -0.722608
vn -0.422259 0.691251 -0.586403
vn -0.118927 0.922977 -0.366019
vn 0.311354 0.922977 -0.226212
vn 0.427217 0.691251 -0.582801
vn -0.003064 0.691251 -0.722608
vn -0.003064 0.691251 -0.722608
vn -0.076565 0.306397 -0.948820
vn -0.495760 0.306397 -0.812615
vn -0.422259 0.691251 -0.586403
vn -0.926041 0.306397 0.220384
vn -0.688188 0.691252 0.220384
vn -0.688188 0.691252 -0.220384
vn -0.926041 0.306397 -0.220384
vn -0.926041 0.306397 -0.220384
vn -0.997648 -0.068543 0.000000
vn -0.926041 0.306397 0.220384
vn -0.926041 0.306397 -0.220384
vn -0.688188 0.691252 -0.220384
vn -0.422259 0.691251 -0.586403
vn -0.495760 0.306397 -0.812615
vn -0.807114 0.068543 -0.586403
vn 0.688188 -0.691252 -0.220384
vn 0.926041 -0.306397 -0.220384
vn 0.926041 -0.306397 0.220384
vn 0.688188 -0.691252 0.220384
vn 0.688188 -0.691252 0.220384
vn 0.384855 -0.922977 -0.000000
vn 0.688188 -0.691252 -0.220384
vn 0.688188 -0.691252 0.220384
vn 0.422259 -0.691251 0.586403
vn 0.118927 -0.922977 0.366019
vn 0.384855 -0.922977 -0.000000
vn 0.384855 -0.922977 -0.000000
vn 0.118927 -0.922977 -0.366019
vn 0.422259 -0.691251 -0.586403
vn 0.688188 -0.691252 -0.220384
vn -0.118927 0.922977 0.366019
vn -0.422259 0.691251 0.586403
vn -0.003064 0.691251 0.722608
vn -0.118927 0.922977 0.366019
vn -0.384855 0.922977 -0.000000
vn -0.688188 0.691252 0.220384
vn -0.422259 0.691251 0.586403
vn -0.422259 0.691251 0.586403
vn -0.495760 0.306397 0.812615
vn -0.076565 0.306397 0.948820
vn -0.003064 0.691251 0.722608
vn 0.926041 -0.306397 -0.220384
vn 0.807114 -0.068543 -0.586403
vn 0.878721 0.306397 -0.366019
vn 0.997648 0.068543 -0.000000
vn 0.997648 0.068543 -0.000000
vn 0.926041 -0.306397 0.220384
vn 0.926041 -0.306397 -0.220384
vn 0.997648 0.068543 -0.000000
vn 0.878721 0.306397 -0.366019
vn 0.686294 0.691251 -0.226212
vn 0.686294 0.691251 0.226212
vn 0.878721 0.306397 0.366019
vn -0.427217 -0.691251 -0.582801
vn -0.311354 -0.922977 -0.226212
vn -0.686294 -0.691251 -0.226212
vn -0.427217 -0.691251 -0.582801
vn 0.003064 -0.691251 -0.722608
vn 0.118927 -0.922977 -0.366019
vn -0.311354 -0.922977 -0.226212
vn -0.311354 -0.922977 -0.226212
vn 0.118927 -0.922977 -0.366019
vn 0.384855 -0.922977 -0.000000
vn 0.118927 -0.922977 0.366019
vn -0.311354 -0.922977 0.226212
vn -0.495760 0.306397 0.812615
vn -0.422259 0.691251 0.586403
vn -0.688188 0.691252 0.220384
vn -0.926041 0.306397 0.220384
vn -0.807114 0.068543 0.586403
vn -0.495760 0.306397 0.812615
vn -0.308290 -0.068543 0.948820
vn -0.076565 0.306397 0.948820
vn -0.076565 0.306397 -0.948820
vn -0.308290 -0.068543 -0.948820
vn -0.495760 0.306397 -0.812615
vn -0.076565 0.306397 -0.948820
vn 0.308290 0.068543 -0.948820
vn 0.076565 -0.306397 -0.948820
vn -0.308290 -0.068543 -0.948820
vn -0.308290 -0.068543 -0.948820
vn 0.076565 -0.306397 -0.948820
vn 0.003064 -0.691251 -0.722608
vn -0.427217 -0.691251 -0.582801
vn -0.619644 -0.306397 -0.722608
vn -0.384855 0.922977 -0.000000
vn -0.118927 0.922977 0.366019
vn 0.311354 0.922977 0.226212
vn 0.311354 0.922977 -0.226212
vn -0.118927 0.922977 -0.366019
vn -0.384855 0.922977 -0.000000
vn -0.688188 0.691252 -0.220384
vn -0.688188 0.691252 0.220384
vn 0.003064 -0.691251 0.722608
vn 0.076565 -0.306397 0.948820
vn -0.308290 -0.068543 0.948820
vn -0.619644 -0.306397 0.722608
vn -0.427217 -0.691251 0.582801
vn 0.003064 -0.691251 0.722608
vn 0.118927 -0.922977 0.366019
vn 0.422259 -0.691251 0.586403
vn 0.619644 0.306397 -0.722608
vn 0.427217 0.691251 -0.582801
vn 0.686294 0.691251 -0.226212
vn 0.878721 0.306397 -0.366019
vn 0.878721 0.306397 -0.366019
vn 0.807114 -0.068543 -0.586403
vn 0.619644 0.306397 -0.722608
vn 0.807114 -0.068543 -0.586403
vn 0.495760 -0.306397 -0.812615
vn 0.308290 0.068543 -0.948820
vn 0.619644 0.306397 -0.722608
vn 0.686294 0.691251 -0.226212
vn 0.427217 0.691251 -0.582801
vn 0.311354 0.922977 -0.226212
vn 0.427217 0.691251 -0.582801
vn 0.619644 0.306397 -0.722608
vn 0.308290 0.068543 -0.948820
vn -0.076565 0.306397 -0.948820
vn -0.003064 0.691251 -0.722608
vn 0.308290 0.068543 -0.948820
vn 0.495760 -0.306397 -0.812615
vn 0.076565 -0.306397 -0.948820
vn 0.495760 -0.306397 -0.812615
vn 0.422259 -0.691251 -0.586403
vn 0.003064 -0.691251 -0.722608
vn 0.076565 -0.306397 -0.948820
vn 0.422259 -0.691251 -0.586403
vn 0.495760 -0.306397 -0.812615
vn 0.807114 -0.068543 -0.586403
vn 0.926041 -0.306397 -0.220384
vn 0.688188 -0.691252 -0.220384
vn 0.422259 -0.691251 -0.586403
vn 0.118927 -0.922977 -0.366019
vn 0.003064 -0.691251 -0.722608
f 1//1 15//2 14//3 2//4
f 2//5 3//6 1//7
f 2//8 34//9 36//10 3//11
f 3//12 48//13 47//14 1//15
f 4//16 7//17 9//18 5//19
f 5//20 6//21 4//22
f 5//23 17//24 16//25 6//26
f 6//27 33//28 32//29 4//30
f 7//31 53//32 52//33 8//34
f 8//35 9//36 7//37
f 8//38 29//39 28//40 9//41
f 9//42 28//43 37//44 17//45 5//46
f 10//47 24//48 23//49 11//50
f 11//51 12//52 10//53
f 11//54 40//55 42//56 12//57
f 12//58 35//59 34//60 10//61
f 13//62 22//63 24//64 14//65
f 14//66 15//67 13//68
f 14//69 24//70 10//71 34//72 2//73
f 15//74 39//75 38//76 13//77
f 16//78 46//79 26//80 33//81 6//82
f 17//83 18//84 16//85
f 17//86 37//87 39//88 18//89
f 18//90 47//91 46//92 16//93
f 19//94 45//95 44//96 20//97
f 20//98 21//99 19//100
f 20//101 52//102 54//103 21//104
f 21//105 41//106 40//107 19//108
f 22//109 43//110 45//111 23//112
f 23//113 24//114 22//115
f 23//116 45//117 19//118 40//119 11//120
f 25//121 31//122 33//123 26//124
f 26//125 27//126 25//127
f 26//128 46//129 48//130 27//131
f 27//132 60//133 59//134 25//135
f 29//136 30//137 28//138
f 29//139 44//140 43//141 30//142
f 30//143 38//144 37//145 28//146
f 31//147 51//148 50//149 32//150
f 32//151 33//152 31//153
f 32//154 50//155 53//156 7//157 4//158
f 35//159 36//160 34//161
f 35//162 58//163 60//164 36//165
f 36//166 60//167 27//168 48//169 3//170
f 38//171 30//172 43//173 22//174 13//175
f 38//176 39//177 37//178
f 41//179 42//180 40//181
f 41//182 56//183 55//184 42//185
f 42//186 55//187 58//188 35//189 12//190
f 44//191 29//192 8//193 52//194 20//195
f 44//196 45//197 43//198
f 47//199 18//200 39//201 15//202 1//203
f 47//204 48//205 46//206
f 49//207 54//208 53//209 50//210
f 50//211 51//212 49//213
f 51//214 57//215 56//216 49//217
f 53//218 54//219 52//220
f 54//221 49//222 56//223 41//224 21//225
f 56//226 57//227 55//228
f 57//229 59//230 58//231 55//232
f 59//233 57//234 51//235 31//236 25//237
f 59//238 60//239 58//240
